<?xml version="1.0" encoding="UTF-8" standalone="no"?>
<!-- Created with Inkscape (http://www.inkscape.org/) -->

<svg
   width="100"
   height="100"
   viewBox="0 0 26.458333 26.458333"
   version="1.1"
   id="svg1"
   inkscape:export-filename="duckduck.svg"
   inkscape:export-xdpi="96"
   inkscape:export-ydpi="96"
   xmlns:inkscape="http://www.inkscape.org/namespaces/inkscape"
   xmlns:sodipodi="http://sodipodi.sourceforge.net/DTD/sodipodi-0.dtd"
   xmlns="http://www.w3.org/2000/svg"
   xmlns:svg="http://www.w3.org/2000/svg">
  <sodipodi:namedview
     id="namedview1"
     pagecolor="#505050"
     bordercolor="#eeeeee"
     borderopacity="1"
     inkscape:showpageshadow="0"
     inkscape:pageopacity="0"
     inkscape:pagecheckerboard="0"
     inkscape:deskcolor="#505050"
     inkscape:document-units="mm" />
  <defs
     id="defs1" />
  <g
     inkscape:label="Camada 1"
     inkscape:groupmode="layer"
     id="layer1">
    <ellipse
       style="fill:none;stroke:#ff6a00;stroke-width:1.02745;stroke-linecap:round;stroke-linejoin:round;stroke-dasharray:none;stroke-opacity:1"
       id="path1"
       cx="13.229167"
       cy="13.22917"
       rx="12.715439"
       ry="12.715441" />
    <circle
       style="fill:#ff6a00;fill-opacity:1;stroke:none;stroke-width:0.283945;stroke-linecap:round;stroke-linejoin:round;stroke-dasharray:none;stroke-opacity:1"
       id="path1-7"
       cx="13.229167"
       cy="13.229167"
       r="11.244792" />
    <path
       style="fill:#ffffff;fill-opacity:1;stroke:none;stroke-width:1.31593;stroke-linecap:round;stroke-linejoin:round;stroke-dasharray:none;stroke-opacity:1"
       d="m 16.677364,21.675978 c 0,0 -3.524984,1.310526 -7.1640204,-1.138195 C 8.2137433,19.663276 6.8565063,18.024226 6.1980944,15.616257 4.2177245,8.3735745 12.909147,1.9462399 16.555801,7.816466 c 1.344794,2.1647892 0.08894,4.358198 0.08894,4.358198 0,0 4.980797,2.223571 5.06974,3.024056 0.08894,0.800486 -2.579341,3.024056 -4.002427,2.935114 -1.423084,-0.08894 -4.765598,-3.694437 -4.765598,-3.694437 0,0 -0.401267,0.55788 -0.649939,1.274899 -0.307239,0.885891 -0.302251,2.010929 0.02343,2.951779 0.100195,0.289449 0.400573,1.164661 1.161108,1.83664 0.493324,0.435883 0.964454,0.743618 1.847368,1.007815 0.666995,0.199588 1.348937,0.165448 1.348937,0.165448 z"
       id="path2"
       sodipodi:nodetypes="cssscsscsssscc" />
    <ellipse
       style="fill:#000000;fill-opacity:1;stroke:none;stroke-width:1.05833;stroke-linecap:round;stroke-linejoin:round;stroke-dasharray:none;stroke-opacity:1"
       id="path3"
       cx="13.004547"
       cy="10.744042"
       rx="0.36670944"
       ry="0.93574136" />
    <ellipse
       style="fill:#000000;fill-opacity:1;stroke:none;stroke-width:1.05833;stroke-linecap:round;stroke-linejoin:round;stroke-dasharray:none;stroke-opacity:1"
       id="path3-8"
       cx="15.944417"
       cy="10.540094"
       rx="0.36670944"
       ry="0.93574136" />
    <path
       style="fill:#ff9c55;fill-opacity:1;stroke:none;stroke-width:1.05833;stroke-linecap:round;stroke-linejoin:round;stroke-dasharray:none;stroke-opacity:1"
       d="m 13.029837,14.63875 c 0,0 -0.997551,-0.95516 -0.897806,-1.239226 0.22043,-0.627767 2.555559,-1.244221 3.135998,-1.289805 1.207612,-0.09484 1.388031,0.02823 1.388031,0.02823 0,0 4.747301,2.145207 5.076075,2.726883 0.328774,0.581678 -0.141529,1.013146 -0.571464,1.443082 -0.429936,0.429935 -2.326709,1.820902 -2.908386,1.820902 -0.581677,0 -0.829389,0.169537 -1.922063,-0.581677 -1.315096,-0.904129 -3.300385,-2.908385 -3.300385,-2.908385 z"
       id="path4"
       sodipodi:nodetypes="csscsssscc" />
    <path
       style="fill:#ffffff;fill-opacity:1;stroke:none;stroke-width:2.17917;stroke-linecap:round;stroke-linejoin:round;stroke-dasharray:none;stroke-opacity:1"
       d="m 11.847714,6.077134 c 0,0 -1.9515724,-0.5155095 -1.841106,-1.2519512 0.110467,-0.7364418 1.472884,-0.88373 1.877926,-0.5891531 0.405044,0.2945767 0.920552,1.3992388 0.920552,1.3992388 0,0 -0.257753,-1.5097049 0.147285,-1.7306377 0.405042,-0.2209327 0.920553,0.2945767 0.883731,0.7732638 -0.03682,0.4786871 -0.257756,0.9205519 -0.257756,0.9205519 z"
       id="path5" />
  </g>
</svg>
